<svg xmlns="http://www.w3.org/2000/svg" baseProfile="tiny-ps" version="1.2" viewBox="0 0 50 50"><title>Romuald Bulyshko</title><path fill="#83CDDA" d="M0 45V0h13v2h-1v5h-1v9h1v1h-2v5H9v1h1v1h1v3h2v1h1v3h1v2h-1v3h-3v1H9v1H8v1H7v1H6v4H5v1H4v1H3v-1H2v-1H1v1z"/><path fill="#84CCDA" d="M36 0h14v46h-2v-2h-2v-3h-1v-1h-1v-2h-1v-1h-2v-1h-3v-1h-1v1h-1v-1h-1v-2h2v-6h1v-1h1v-2h1v-7h-1V8h-1V4h-1V1h-1z"/><path fill="#0B0C11" d="M38 50v-1h-3v-1h2v-1h3v3z"/><path fill="#08070A" d="M40 50v-1h1v-1h1v-1h2v-1h1v2h-1v1h-1v1z"/><path fill="#D0B1A2" d="M24 50h-2v-2h2v-3h1v4h-1z"/><path fill="#79C9D6" d="M0 45h1v-1h1v1h1v1H2v2h1v1H1v-1h1v-1H1v-1H0z"/><path fill="#171215" d="M29 0h1v1h1v1h-3v1h-1V2h-1V1h3z"/><path fill="#0F0F15" d="M43 50v-1h3v-1h1v1h1v1z"/><path fill="#453339" d="M29 50h-1v-4h2v2h-1v1z"/><path fill="#546371" d="M10 50H6v-2h1v1h3z"/><path fill="#130D0E" d="M23 0h1v1h1v2h-1V2h-2V1h1z"/><path fill="#07070B" d="M35 49h1v1h-2v-1h-1v-1h2z"/><path fill="#73C7D5" d="M49 46h1v3h-2v-1h1v-1z"/><path fill="#83CDDA" d="M0 46h1v1h1v1H1v1H0z"/><path fill="#201518" d="M23 0v1h-1v1h-1V0z"/><path fill="#4A5460" d="M14 50h-1v-2h1v1z"/><path fill="#4A3A3B" d="M21 0v2h-1V0z"/><path fill="#A57F75" d="M25 49v-1h1v2h-1z"/><path fill="#252126" d="M31 2V0h1v2zm2-2h2v1h-2z"/><path fill="#21191C" d="M32 50h-1v-2h1v1z"/><path fill="#151921" d="M36 50v-1h2v1z"/><path fill="#79C9D6" d="M0 49h1v1H0z"/><path fill="#627E90" d="M49 49h1v1h-1z"/><path fill="#1A171B" d="M21 50h-1v-1h1z"/><path fill="#0B0C11" d="M10 50v-1h1v1z"/><path fill="#1B212A" d="M11 50v-1h1v1z"/><path fill="#5B6473" d="M12 50v-1h1v1z"/><path fill="#14161D" d="M14 50v-1h1v1z"/><path fill="#4D5B68" d="M15 50v-1h1v1z"/><path fill="#0B0C11" d="M16 50v-1h1v1z"/><path fill="#333C48" d="M17 50v-1h1v1z"/><path fill="#171B23" d="M18 50v-1h1v1z"/><path fill="#252B34" d="M19 50v-1h1v1z"/><path fill="#47525D" d="M6 49v1H5v-1z"/><path fill="#7F5B5E" d="M21 50v-1h1v1z"/><path fill="#C9A391" d="M25 49v1h-1v-1z"/><path fill="#876765" d="M26 50v-1h1v1z"/><path fill="#573E42" d="M27 50v-1h1v1z"/><path fill="#4D424D" d="M29 50v-1h1v1z"/><path fill="#352A2F" d="M30 50v-1h1v1z"/><path fill="#0D0B0E" d="M32 50v-1h1v1z"/><path fill="#1A1E26" d="M33 50v-1h1v1z"/><path fill="#21262E" d="M49 49v1h-1v-1z"/><path fill="#83CDDA" d="M1 50v-1h1v1z"/><path fill="#22424E" d="M2 50v-1h1v1z"/><path fill="#4D5B68" d="M3 50v-1h1v1z"/><path fill="#201E21" d="M4 50v-1h1v1z"/><path fill="#0D0B0E" d="M28 1h-1V0h1z"/><path fill="#86AEB7" d="M13 1V0h1v1z"/><path fill="#201E21" d="M14 1V0h1v1z"/><path fill="#171215" d="M15 1V0h1v1z"/><path fill="#3F2F2E" d="M16 1V0h1v1z"/><path fill="#5A4C46" d="M17 1V0h1v1z"/><path fill="#746161" d="M18 1V0h1v1z"/><path fill="#8F7B76" d="M19 1V0h1v1z"/><path fill="#2B2326" d="M25 1h-1V0h1z"/><path fill="#171215" d="M25 1V0h1v1z"/><path fill="#483A42" d="M26 1V0h1v1z"/><path fill="#2B2326" d="M28 1V0h1v1z"/><path fill="#2B2A2F" d="M31 0v1h-1V0zm2 0v1h-1V0z"/><path fill="#85C4CD" d="M35 1V0h1v1z"/><path fill="#79C9D6" d="M14 35v-2h2v2h-1z"/><path fill="#8DC9D4" d="M11 24h-1v-1H9v-1h2v1z"/><path fill="#A58A83" d="M12 17v-2h1v2z"/><path fill="#212A34" d="M12 36h2v1h-2zm-6 7v-2h1v2z"/><path fill="#8DC9D4" d="M12 27h-1v-2h1v1z"/><path fill="#47525D" d="M6 43h2v1H6z"/><path fill="#94C3CE" d="M11 10V8h1v2z"/><path fill="#90BDC6" d="M11 13v-2h1v2z"/><path fill="#6D544E" d="M12 7V6h1v2h-1z"/><path fill="#5A4C46" d="M13 6h-1V5h1z"/><path fill="#4E3F3C" d="M13 5h-1V4h1z"/><path fill="#444E59" d="M3 46h1v1H3z"/><path fill="#22424E" d="M8 39v-1h1v1z"/><path fill="#4D6F80" d="M12 36v1h-1v-1z"/><path fill="#2E535E" d="M14 35h1v1h-1z"/><path fill="#808791" d="M16 33h-1v-1h1z"/><path fill="#1B212A" d="M10 37h1v1h-1z"/><path fill="#A2CDD7" d="M10 37v1H9v-1z"/><path fill="#40545F" d="M7 40v-1h1v1H7z"/><path fill="#627E90" d="M7 41H6v-1h1z"/><path fill="#8FCFDB" d="M4 46v-1h1v1z"/><path fill="#8DC9D4" d="M11 13h1v1h-1z"/><path fill="#90BDC6" d="M11 14h1v1h-1z"/><path fill="#D4D4D9" d="M10 18v-1h1v1z"/><path fill="#8DC9D4" d="M11 15h1v1h-1z"/><path fill="#822F34" d="M10 18h1v1h-1z"/><path fill="#AD424A" d="M10 19h1v1h-1z"/><path fill="#B0B3B8" d="M11 18v-1h1v1z"/><path fill="#788F9D" d="M12 3V2h1v1z"/><path fill="#696A75" d="M12 3h1v1h-1z"/><path fill="#483A42" d="M13 1h1v1h-1z"/><path fill="#8DC9D4" d="M12 7v1h-1V7z"/><path fill="#86AEB7" d="M12 11h-1v-1h1z"/><path fill="#E8D8CD" d="M12 27v-1h1v1z"/><path fill="#B6ACA9" d="M14 28h-1v-1h1z"/><path fill="#CAB4AC" d="M14 29v-1h1v1z"/><path fill="#E0B4AA" d="M12 25h-1v-1h1z"/><path fill="#A57F75" d="M16 32h-1v-1h1z"/><path fill="#808791" d="M14 29h1v1h-1z"/><path fill="#94C3CE" d="M14 30h1v1h-1z"/><path fill="#D4D4D9" d="M11 22h-1v-1h1z"/><path fill="#E0B4AA" d="M11 21h-1v-1h1z"/><path fill="#8FCFDB" d="M5 45v-1h1v1z"/><path fill="#0B0A0E" d="M36 36h1v3h-3v-2h1v-1z"/><path fill="#252126" d="M38 6v3h-1V6z"/><path fill="#42515C" d="M39 9v3h-1V9z"/><path fill="#74A1B1" d="M37 28v2h-1v-2z"/><path fill="#333C48" d="M44 40h1v1h-2v-1z"/><path fill="#21262E" d="M46 44h1v2h-1v-1z"/><path fill="#8FCFDB" d="M36 30h1v2h-1v-1z"/><path fill="#611E2F" d="M40 19v2h-1v-2z"/><path fill="#83CDDA" d="M36 32h1v1h-1z"/><path fill="#541719" d="M40 19h-1v-1h1z"/><path fill="#79C9D6" d="M37 36v-1h1v1z"/><path fill="#627E90" d="M41 37h1v1h-1z"/><path fill="#22424E" d="M36 36h-1v-1h1z"/><path fill="#2E535E" d="M35 34v1h-1v-1z"/><path fill="#2B2326" d="M35 34h-1v-1h1z"/><path fill="#688396" d="M36 32v1h-1v-1z"/><path fill="#73C7D5" d="M40 36h1v1h-1z"/><path fill="#8DC9D4" d="M40 36v1h-1v-1z"/><path fill="#40545F" d="M39 36v1h-1v-1z"/><path fill="#1B212A" d="M49 46v1h-1v-1z"/><path fill="#485764" d="M47 46v-1h1v1z"/><path fill="#74A1B1" d="M43 38h1v1h-1z"/><path fill="#1B212A" d="M43 39h1v1h-1zm3 4v1h-1v-1z"/><path fill="#85C4CD" d="M48 45h-1v-1h1z"/><path fill="#8FCFDB" d="M46 41v1h-1v-1z"/><path fill="#546371" d="M45 42h1v1h-1z"/><path fill="#A2CDD7" d="M39 15v1h-1v-1z"/><path fill="#7FB6BF" d="M38 16h1v1h-1z"/><path fill="#5D6A79" d="M38 12h1v1h-1z"/><path fill="#40545F" d="M38 13h1v1h-1z"/><path fill="#788F9D" d="M38 14h1v1h-1z"/><path fill="#96A4B8" d="M40 18h-1v-1h1z"/><path fill="#22424E" d="M37 2v1h-1V2z"/><path fill="#74A1B1" d="M39 9h-1V8h1z"/><path fill="#2B2326" d="M36 3h1v1h-1z"/><path fill="#7FB6BF" d="M37 4h1v1h-1z"/><path fill="#212A34" d="M37 5h1v1h-1z"/><path fill="#3B2E36" d="M39 24v1h-1v-1z"/><path fill="#A2CDD7" d="M38 25h1v1h-1z"/><path fill="#765A67" d="M38 26v1h-1v-1z"/><path fill="#574149" d="M39 21h1v1h-1z"/><path fill="#96A4B8" d="M39 22h1v1h-1z"/><path fill="#79C9D6" d="M42 38v-1h1v1z"/><path fill="#85C4CD" d="M37 2h-1V1h1z"/><path fill="#688396" d="M37 28h-1v-1h1z"/><path fill="#8DC9D4" d="M40 23v1h-1v-1h1z"/><path fill="#0B0A0E" d="M36 48h-1v-1h-1v-1h3v1h-1z"/><path fill="#0F0F15" d="M42 47v1h-1v1h-1v-2h1z"/><path fill="#1A1E26" d="M37 47v-1h2v1z"/><path fill="#21262E" d="M36 48v-1h1v1z"/><path fill="#333C48" d="M39 47v-1h1v1z"/><path fill="#1A171B" d="M46 48v1h-2v-1h1v-1h1z"/><path fill="#14161D" d="M45 44h1v1h-1v1h-1v-2z"/><path fill="#121217" d="M44 46v1h-2v-1h2z"/><path fill="#0B0C11" d="M46 47h-1v-1h1z"/><path fill="#DBBBAA" d="M24 46h-1v1h1v1h-2v-4h1v1h1z"/><path fill="#DFC5B8" d="M24 45h-1v-1h2v-1h1v2h-1z"/><path fill="#DBBBAA" d="M25 45h1v1h-1z"/><path fill="#9E7067" d="M26 48h-1v-1h1v1z"/><path fill="#E4C8B9" d="M24 47h-1v-1h1z"/><path fill="#B2897B" d="M26 47h-1v-1h1z"/><path fill="#E9D4C5" d="M22 49h-1v-1h1z"/><path fill="#74A1B1" d="M3 47v1H2v-1z"/><path fill="#3F4049" d="M4 49H3v-1h1z"/><path fill="#83CDDA" d="M3 47H2v-1h1z"/><path fill="#423231" d="M27 3h2v1h-2z"/><path fill="#21191C" d="M29 3h-1V2h2v1z"/><path fill="#2B2A2F" d="M30 3V2h1v1z"/><path fill="#352A2F" d="M25 1h1v1h-1z"/><path fill="#2B2326" d="M26 2h1v1h-1z"/><path fill="#1A1E26" d="M46 47v-1h1v2h-1z"/><path fill="#212A34" d="M48 49h-1v-1h1z"/><path fill="#483A42" d="M30 48v-2h-1v-4h2v-1h1v2h-1v5z"/><path fill="#423239" d="M29 42v4h-1v-4z"/><path fill="#553C40" d="M28 47v1h-1v-1z"/><path fill="#7F5B5E" d="M27 48h1v1h-1z"/><path fill="#483A42" d="M30 49h-1v-1h1z"/><path fill="#525B69" d="M6 49H5v-3h1v1h1v1H6z"/><path fill="#40545F" d="M9 49H8v-1h1z"/><path fill="#0D0B0E" d="M9 49v-1h1v1z"/><path fill="#4D5B68" d="M8 48v1H7v-1z"/><path fill="#2B1618" d="M21 2h2v1h-2z"/><path fill="#423231" d="M23 3V2h1v1z"/><path fill="#21191C" d="M26 2v1h-1V2z"/><path fill="#4F2F34" d="M24 3h1v1h-1z"/><path fill="#121217" d="M34 47h1v1h-2v-1z"/><path fill="#1A171B" d="M33 49h-1v-1h1z"/><path fill="#327985" d="M48 47h1v1h-1z"/><path fill="#525B69" d="M14 48h-1v-1h2v1z"/><path fill="#4D5B68" d="M13 49h-2v-1h2z"/><path fill="#2B2A2F" d="M14 48h1v1h-1z"/><path fill="#4F2E30" d="M21 2v1h-1V2z"/><path fill="#301C1F" d="M19 1h1v1h-1z"/><path fill="#7C5551" d="M27 48v1h-1v-1z"/><path fill="#1A171B" d="M36 1v3h-1V2h-3V1h3z"/><path fill="#4D424D" d="M31 3V2h1v1z"/><path fill="#3B2E36" d="M31 48v-1h1v1z"/><path fill="#423239" d="M30 49v-1h1v1z"/><path fill="#865D58" d="M21 48v1h-1v-1z"/><path fill="#47525D" d="M11 48v1h-1v-3h2v1h-1z"/><path fill="#444550" d="M15 49v-1h1v1z"/><path fill="#2D2F39" d="M16 49v-1h1v1z"/><path fill="#485764" d="M17 49v-1h1v1z"/><path fill="#0B0C11" d="M18 49v-1h1v1z"/><path fill="#2B2326" d="M19 49v-1h1v1z"/><path fill="#444E59" d="M5 48v1H4v-1z"/><path fill="#130D0E" d="M14 2V1h1v1z"/><path fill="#4F2E30" d="M15 2V1h1v1z"/><path fill="#573E42" d="M16 2V1h1v1z"/><path fill="#3F2F2E" d="M17 2V1h1v1z"/><path fill="#4E3F3C" d="M18 2V1h1v1z"/><path fill="#252B34" d="M15 36v-1h1v1z"/><path fill="#A09998" d="M16 35v-1h1v1z"/><path fill="#71585B" d="M17 34h-1v-1h1z"/><path fill="#CA897E" d="M11 23v-1h1v1z"/><path fill="#E09396" d="M11 23h1v1h-1z"/><path fill="#EABBAB" d="M13 16v-2h1v2z"/><path fill="#EFC9B6" d="M13 16h1v1h-1z"/><path fill="#5D6A79" d="M12 18v-1h1v1z"/><path fill="#8F7B76" d="M13 14v1h-1v-1z"/><path fill="#121217" d="M14 37v2h-3v-1h2v-1z"/><path fill="#0F0F15" d="M15 36h1v1h-2v-1z"/><path fill="#1B212A" d="M13 37v1h-1v-1z"/><path fill="#40545F" d="M7 42v-1h1v1z"/><path fill="#4D5B68" d="M7 42h1v1H7z"/><path fill="#EBCDBD" d="M13 26h-1v-1h1z"/><path fill="#4D5B68" d="M6 45v-1h1v1z"/><path fill="#252B34" d="M7 45v-1h1v1z"/><path fill="#4D5B68" d="M8 44v-1h1v1z"/><path fill="#876765" d="M12 8h1v1h-1z"/><path fill="#8F7B76" d="M12 9h1v1h-1z"/><path fill="#A58A83" d="M12 10h1v2h-1v-1z"/><path fill="#8F7B76" d="M12 12h1v1h-1z"/><path fill="#E4C8B9" d="M13 10V7h1v3z"/><path fill="#BDA79D" d="M14 7h-1V6h1z"/><path fill="#6D544E" d="M14 6h-1V5h1z"/><path fill="#423231" d="M14 5h-1V2h1v2z"/><path fill="#485764" d="M5 48H3v-1h1v-1h1v1z"/><path fill="#14161D" d="M11 38v1h-1v2H9v-3h1z"/><path fill="#333C48" d="M9 39v1H8v-1z"/><path fill="#252B34" d="M12 37v1h-1v-1z"/><path fill="#A57F75" d="M17 33h-1v-1h1v1z"/><path fill="#333C48" d="M8 41H7v-1h1z"/><path fill="#546371" d="M5 46v-1h1v1z"/><path fill="#A58A83" d="M12 13h1v1h-1z"/><path fill="#F2E8DC" d="M11 18h1v1h-1z"/><path fill="#EABBAB" d="M11 19h1v1h-1z"/><path fill="#F2D9CB" d="M14 27h-1v-1h1z"/><path fill="#DFC5B8" d="M15 28h-1v-1h1v1z"/><path fill="#E8BFAD" d="M15 28v-1h1v3h-1v-1z"/><path fill="#F3D3C6" d="M13 25h-1v-2h1v1z"/><path fill="#D9AA9A" d="M17 32h-1v-1h1z"/><path fill="#C49483" d="M15 30h1v1h-1z"/><path fill="#DFAAA1" d="M11 22v-1h1v1z"/><path fill="#EDCCC0" d="M12 21h-1v-1h1z"/><path fill="#07070B" d="M43 39v4h-1v-1h-1v-1h-1v-1h-1v1h-1v-1h-2v1h2v1h-1v1h-1v-1h-1v-3h2v-1h3v1h1v1h1v-1z"/><path fill="#14161D" d="M41 39h-1v-1h-3v-2h1v1h2l1 1z"/><path fill="#525B69" d="M34 37v1h-1v-1z"/><path fill="#0F0F15" d="M35 36v1h-1v-1z"/><path fill="#55606D" d="M33 38h1v1h-1z"/><path fill="#252B34" d="M35 39v1h-1v-1z"/><path fill="#5D6A79" d="M37 8v4h-1V8z"/><path fill="#2B2A2F" d="M37 6v1h-1V6z"/><path fill="#444E59" d="M36 7h1v1h-1z"/><path fill="#353740" d="M37 10V9h1v1z"/><path fill="#3F4049" d="M37 10h1v2h-1z"/><path fill="#5A5A68" d="M36 27v2h-1v-5h1v1z"/><path fill="#51525E" d="M35 29h1v1h-1z"/><path fill="#252B34" d="M43 43v-2h1v1h1v2h-1v-1z"/><path fill="#1A1E26" d="M45 42h-1v-1h1zm1 4h-1v-1h1z"/><path fill="#625A63" d="M36 32h-1v-1h1z"/><path fill="#55464F" d="M36 31h-1v-1h1z"/><path fill="#604950" d="M39 18v2h-1v-2z"/><path fill="#765A67" d="M38 20h1v1h-1z"/><path fill="#0B0C11" d="M41 39v-1h1v2h-1z"/><path fill="#333C48" d="M41 38h-1v-1h1z"/><path fill="#2D2F39" d="M35 36h-2v-1h2z"/><path fill="#2A1B1E" d="M34 35h-1v-1h1z"/><path fill="#423239" d="M35 32v1h-1v-1z"/><path fill="#453339" d="M34 34h-1v-1h1z"/><path fill="#212A34" d="M47 47v-1h1v1zm-5-8v-1h1v1z"/><path fill="#21262E" d="M38 15v1h-1v-1z"/><path fill="#040307" d="M37 16h1v2h-1v-1z"/><path fill="#525B69" d="M38 18v-1h1v1z"/><path fill="#3E363C" d="M37 12h1v2h-1v-2z"/><path fill="#2D2F39" d="M37 14h1v1h-1z"/><path fill="#201E21" d="M35 4h2v1h-2z"/><path fill="#1A171B" d="M36 5h1v1h-1z"/><path fill="#765A67" d="M38 24v1h-1v-1z"/><path fill="#604950" d="M39 23v1h-1v-1z"/><path fill="#53424B" d="M37 25h1v1h-1z"/><path fill="#788F9D" d="M37 25v2h-1v-2z"/><path fill="#67363A" d="M38 21h1v1h-1z"/><path fill="#4E222D" d="M38 22h1v1h-1z"/><path fill="#121217" d="M38 46h-4v-1h1v-1h1v1h2z"/><path fill="#201E21" d="M34 47h-1v-1h1z"/><path fill="#171B23" d="M43 43h1v1h-1v1h1v1h-2v1h-1v-1h-1v-1h1v-1h1v-1z"/><path fill="#07070B" d="M40 46h1v1h-1z"/><path fill="#040307" d="M41 44v1h-2v1h-1v-3h1v1h1z"/><path fill="#2D2F39" d="M39 46v-1h1v1z"/><path fill="#21262E" d="M44 45h-1v-1h1z"/><path fill="#DFC5B8" d="M22 44v2h-1v-5h1v1h1v2z"/><path fill="#E4C8B9" d="M22 46v2h-1v-2z"/><path fill="#E8D8CD" d="M23 44v-1h1v-1h1v2z"/><path fill="#D2A99A" d="M26 45v-1h1v1z"/><path fill="#BA928A" d="M25 43v-1h1v1zm2 1h-1v-1h1z"/><path fill="#8A5854" d="M26 45h1v1h-1z"/><path fill="#563337" d="M27 48h-1v-1h1z"/><path fill="#4F2E30" d="M27 47h-1v-1h1z"/><path fill="#61464B" d="M28 4h2v1h1v1h-1V5h-2z"/><path fill="#553C40" d="M30 4h-1V3h1z"/><path fill="#96736B" d="M28 4v1h-1V4z"/><path fill="#573E42" d="M26 3h1v1h-1z"/><path fill="#55464F" d="M30 4V3h1v1h1v1h-2z"/><path fill="#61464B" d="M26 3v1h-1V3z"/><path fill="#121217" d="M47 47h1v1h-1z"/><path fill="#4D424D" d="M32 43v-2h1v3h1v1h-2v-1z"/><path fill="#4B3E48" d="M32 43v2h1v1h-1v1h-1v-4z"/><path fill="#3F4049" d="M33 41h-1v-1h1z"/><path fill="#3E363C" d="M32 40v1h-1v-1z"/><path fill="#3B2E36" d="M30 42h-1v-1h1z"/><path fill="#4D424D" d="M30 42v-1h1v1z"/><path fill="#44272C" d="M27 47v-2h1v2z"/><path fill="#2B2326" d="M29 41v1h-1v-1z"/><path fill="#563337" d="M28 45h-1v-1h1z"/><path fill="#6B4647" d="M28 44h-1v-1h1z"/><path fill="#3D2E30" d="M28 43h-1v-1h1z"/><path fill="#444E59" d="M8 48H7v-1h1zm-2-2h1v1H6z"/><path fill="#0B0A0E" d="M8 48v-2h1v2z"/><path fill="#2D2F39" d="M9 48v-1h1v1z"/><path fill="#A57F75" d="M21 3h1v1h-1z"/><path fill="#6D544E" d="M22 4V3h1v1z"/><path fill="#71585B" d="M23 4V3h1v1z"/><path fill="#D2A99A" d="M25 4h1v1h-2V4z"/><path fill="#2B2326" d="M32 48v-1h1v1z"/><path fill="#55606D" d="M12 47v-1h-2v-1h1v-1h1v1h2v2h-1z"/><path fill="#4A5460" d="M17 48h-2v-1h2z"/><path fill="#444550" d="M12 47h1v1h-1z"/><path fill="#47525D" d="M14 47v-1h1v1z"/><path fill="#1A1E26" d="M12 47v1h-1v-1z"/><path fill="#6C4C4A" d="M19 2h1v1h-1z"/><path fill="#876765" d="M21 3v1h-1V3z"/><path fill="#5B6473" d="M32 3V2h1v1z"/><path fill="#1B212A" d="M33 3V2h1v1z"/><path fill="#0F0F15" d="M34 3V2h1v1z"/><path fill="#1B212A" d="M34 3h1v1h-1z"/><path fill="#525B69" d="M32 3h1v2h-1V4h-1V3z"/><path fill="#E5D2C4" d="M21 47v1h-1v-1h-1v-1h2z"/><path fill="#14161D" d="M10 47H9v-1h1z"/><path fill="#0B0A0E" d="M17 48v-1h1v1z"/><path fill="#3A2529" d="M18 48v-1h1v1z"/><path fill="#E4C5B6" d="M19 48v-1h1v1z"/><path fill="#4E3F3C" d="M14 4V2h2v1h-1v1z"/><path fill="#2B1618" d="M16 3V2h1v1z"/><path fill="#4F2F34" d="M17 3V2h1v1z"/><path fill="#6D544E" d="M18 3V2h1v1z"/><path fill="#EBDACD" d="M16 37v-2h1v3h-1z"/><path fill="#77574F" d="M17 35v-1h1v1z"/><path fill="#B2897B" d="M18 34h-1v-1h1v1z"/><path fill="#9B6963" d="M13 23h-1v-1h1z"/><path fill="#DEB8A7" d="M13 14v-1h2v3h-1v-2z"/><path fill="#0D0B0E" d="M13 18v-1h2v1h-1v2h-1v-1z"/><path fill="#DFC5B8" d="M15 17h-1v-1h2v1z"/><path fill="#6C4C4A" d="M13 18v1h-1v-1z"/><path fill="#0B0A0E" d="M16 37v2h-1v1h-5v-1h4v-2z"/><path fill="#14161D" d="M8 42v-1h1v1z"/><path fill="#444E59" d="M8 42h2v1H8z"/><path fill="#BA928A" d="M14 26h-1v-1h1z"/><path fill="#444550" d="M7 46H6v-1h1z"/><path fill="#4A5460" d="M8 44h1v1H8z"/><path fill="#1B212A" d="M7 46v-1h1v1z"/><path fill="#353740" d="M9 43h1v1H9z"/><path fill="#DBBBAA" d="M13 10h1v2h-1z"/><path fill="#D0B1A2" d="M13 12h1v1h-1z"/><path fill="#E8BFAD" d="M14 13V6h2v2h-1v5z"/><path fill="#E4C5B6" d="M15 6h-1V5h1z"/><path fill="#806563" d="M15 5h-1V4h1z"/><path fill="#08070A" d="M10 42v-2h4v1h-1v1h-1v1h-2zm-1-1H8v-1h1z"/><path fill="#21262E" d="M10 41v1H9v-1z"/><path fill="#D2A99A" d="M18 33h-1v-1h1z"/><path fill="#D9AA9A" d="M12 19h1v1h-1z"/><path fill="#E9C6B7" d="M14 26v-2h1v2h1v1h-2z"/><path fill="#F0D2C1" d="M16 27v-1h1v3h3v1h-1v1h-1v-1h-2v-2z"/><path fill="#D0B1A2" d="M14 24v1h-1v-1z"/><path fill="#E8C1B3" d="M14 24h-1v-1h1z"/><path fill="#E9C6B7" d="M17 30h1v1h1v1h-2v-1z"/><path fill="#DBBBAA" d="M17 30v1h-1v-1z"/><path fill="#822F34" d="M13 22h-1v-1h1z"/><path fill="#D0B1A2" d="M13 21h-1v-1h1z"/><path fill="#0B0C11" d="M41 44h-1v-1h-3v-1h3v-1h1v2h1v1z"/><path fill="#151921" d="M37 45h-1v-2h1z"/><path fill="#0B0C11" d="M39 41v-1h1v1z"/><path fill="#353740" d="M34 40h1v1h-1z"/><path fill="#151921" d="M37 41h-1v-1h1z"/><path fill="#212A34" d="M37 41v-1h1v1z"/><path fill="#1B212A" d="M39 42h-1v-1h1z"/><path fill="#21262E" d="M35 42h1v1h-1zm7 1h-1v-1h1z"/><path fill="#333C48" d="M34 41h1v1h-1z"/><path fill="#171215" d="M33 37v1h-1v-1z"/><path fill="#696A75" d="M33 36h1v1h-1z"/><path fill="#51525E" d="M34 41v3h-1v-5h1v1z"/><path fill="#3B2E36" d="M32 38h1v1h-1z"/><path fill="#524F5A" d="M36 10v4h-1v-4z"/><path fill="#525B69" d="M36 10h-1V8h1z"/><path fill="#607486" d="M36 14v-2h1v2zm0-9v2h-1V5z"/><path fill="#546371" d="M35 7h1v1h-1z"/><path fill="#61464B" d="M35 29v1h-1v1h-1v-4h1v1h1z"/><path fill="#574149" d="M35 24v3h-1v-3h1z"/><path fill="#688396" d="M37 25h-1v-2h1v1z"/><path fill="#604950" d="M34 27h1v1h-1z"/><path fill="#696A75" d="M36 23v1h-1v-1z"/><path fill="#553C40" d="M34 31v-1h1v2h-1z"/><path fill="#0B0C11" d="M37 18h1v2h-1v-1z"/><path fill="#3E363C" d="M37 20h1v1h-1v-1z"/><path fill="#3A2529" d="M33 34v2h-1v1h-1v-2h1v-1z"/><path fill="#604950" d="M34 33h-1v-1h1z"/><path fill="#301C1F" d="M33 32v2h-1v-3h1z"/><path fill="#688396" d="M36 14h1v2h-2v-1h1z"/><path fill="#0B0A0E" d="M35 16h2v1h-2z"/><path fill="#808791" d="M36 17h1v1h-1z"/><path fill="#627E90" d="M34 4h1v1h-1z"/><path fill="#462424" d="M37 24v-1h1v1z"/><path fill="#A09998" d="M38 23h-1v-2h1v1z"/><path fill="#07070B" d="M37 45v-2h3v1h-1v-1h-1v2z"/><path fill="#3B2E36" d="M34 44v-1h1v2h-1z"/><path fill="#0B0C11" d="M35 44v-1h1v1z"/><path fill="#352A2F" d="M33 46v-1h1v1z"/><path fill="#3B2E36" d="M33 47h-1v-1h1z"/><path fill="#EBDACD" d="M21 46h-3v-1h-1v-2h1v1h1v1h1v-2h1z"/><path fill="#E5D2C4" d="M21 43h-1v-2h1z"/><path fill="#4A3A3B" d="M22 41h-1v-1h1z"/><path fill="#8F7B76" d="M23 42h-1v-1h1v1z"/><path fill="#EFE3D7" d="M24 42v1h-1v-1z"/><path fill="#201518" d="M25 42h-1v-2h1v2z"/><path fill="#2A1B1E" d="M25 42v-2h1v2z"/><path fill="#5A3639" d="M27 42v1h-1v-1z"/><path fill="#AE7D70" d="M27 5h1v7h-1V7z"/><path fill="#9E7067" d="M28 9V5h1v4z"/><path fill="#574149" d="M31 5h1v1h1v1h-2V6z"/><path fill="#6C4C4A" d="M31 6v2h-1V6z"/><path fill="#7C5551" d="M29 6V5h1v1z"/><path fill="#B8887C" d="M26 5V4h1v1z"/><path fill="#4D424D" d="M32 39h1v1h-1z"/><path fill="#201518" d="M31 41h-1v-1h1z"/><path fill="#1A171B" d="M32 39v1h-1v-1z"/><path fill="#130D0E" d="M30 40v1h-1v-1z"/><path fill="#171215" d="M28 42h-1v-2h1v1z"/><path fill="#3E363C" d="M28 41v-1h1v1z"/><path fill="#14161D" d="M7 46h1v1H7z"/><path fill="#2D2F39" d="M8 46v-1h1v1z"/><path fill="#E3BBAD" d="M20 4h3v3h-1V5h-2z"/><path fill="#DCB1A2" d="M23 7V4h1v1h1v1h-1v4h-1V8z"/><path fill="#CB9B8B" d="M25 6V5h1v3h-1z"/><path fill="#0B0C11" d="M11 43h3v2h-1v-1h-2z"/><path fill="#21262E" d="M11 44v1h-1v-1z"/><path fill="#5D6A79" d="M12 44h1v1h-1z"/><path fill="#444E59" d="M9 46v-1h1v1z"/><path fill="#040307" d="M15 46h-1v-1h1z"/><path fill="#3F4049" d="M15 47v-1h1v1z"/><path fill="#0B0C11" d="M16 47v-1h1v1z"/><path fill="#BA928A" d="M18 3h2v1h-2z"/><path fill="#607486" d="M33 4V3h1v1z"/><path fill="#5A5A68" d="M33 5h1v1h-1z"/><path fill="#524F5A" d="M33 5v1h-1V5z"/><path fill="#5B6473" d="M34 5h-1V4h1z"/><path fill="#E9D4C5" d="M18 46h1v1h-1z"/><path fill="#301C1F" d="M18 46v1h-1v-1z"/><path fill="#7F5B5E" d="M15 4V3h1v1z"/><path fill="#DBBBAA" d="M16 4V3h1v1z"/><path fill="#E5D2C4" d="M17 4V3h1v1z"/><path fill="#E9D4C5" d="M17 43v1h-1v-6h1v3z"/><path fill="#5A4C46" d="M17 35h1v1h-1z"/><path fill="#A58A83" d="M17 36h1v1h-1z"/><path fill="#EFE3D7" d="M17 37h1v1h-1z"/><path fill="#B2897B" d="M18 35v-1h1v1z"/><path fill="#C9A391" d="M19 34h-1v-2h1v1z"/><path fill="#EED0C4" d="M13 21v-1h1v3h-1v-1z"/><path fill="#EECFBE" d="M15 13v-2h1v4h-1z"/><path fill="#F2DBCE" d="M15 15h2v1h-2z"/><path fill="#F2E8DC" d="M15 17h2v1h-2z"/><path fill="#CAB4AC" d="M14 19v-1h1v1z"/><path fill="#4E222D" d="M14 19h1v1h-1z"/><path fill="#806563" d="M17 17h-1v-1h1z"/><path fill="#627E90" d="M14 41v-1h1v1z"/><path fill="#5B6473" d="M16 39v1h-1v-1z"/><path fill="#525B69" d="M10 45H9v-1h1z"/><path fill="#55606D" d="M11 44h-1v-1h1z"/><path fill="#F1E2D5" d="M16 7h1v3h3v1h-4z"/><path fill="#E9C6B7" d="M16 4h1v2h-2V5h1z"/><path fill="#EFC9B6" d="M16 8v3h-1V8z"/><path fill="#F3D3C6" d="M16 6h1v1h-1z"/><path fill="#E4C5B6" d="M16 4v1h-1V4z"/><path fill="#4D6F80" d="M13 42v-1h1v1z"/><path fill="#40545F" d="M13 43h-1v-1h1z"/><path fill="#EECFBE" d="M16 26h-1v-2h1v1zm-2-2v-1h1v1z"/><path fill="#F7E4D8" d="M17 27v-1h1v-1h1v2z"/><path fill="#F2D9CB" d="M19 29h-2v-1h2z"/><path fill="#F0DED1" d="M19 28h-2v-1h2zm-1-3v1h-2v-1z"/><path fill="#F2DBCE" d="M20 30v-1h2v1z"/><path fill="#BA928A" d="M19 31v-1h1v1z"/><path fill="#E0B4AA" d="M19 29v-1h1v1z"/><path fill="#77574F" d="M19 31h1v1h-1z"/><path fill="#212A34" d="M39 42v-1h1v1z"/><path fill="#4B3E48" d="M35 43h-1v-1h1z"/><path fill="#2A1B1E" d="M32 37v-1h1v1z"/><path fill="#201518" d="M31 37h1v1h-1z"/><path fill="#130D0E" d="M31 38h1v1h-1z"/><path fill="#53424B" d="M35 9v3h-1V9z"/><path fill="#4A3A3B" d="M34 12h1v2h-1z"/><path fill="#5B6473" d="M36 14v1h-1v-1z"/><path fill="#524F5A" d="M35 9h-1V8h1z"/><path fill="#55606D" d="M34 6V5h1v2h-1z"/><path fill="#51525E" d="M34 7h1v1h-1z"/><path fill="#5C393F" d="M33 27v3h-1v-5h1z"/><path fill="#3A2327" d="M32 30h1v1h-2v1h-1v-2z"/><path fill="#644247" d="M33 27v-2h1v2z"/><path fill="#71585B" d="M33 32v-1h1v1z"/><path fill="#6B4647" d="M34 25h-1v-1h1z"/><path fill="#040307" d="M35 23v1h-1v-1z"/><path fill="#0B0A0E" d="M37 22v1h-1v-1z"/><path fill="#625A63" d="M36 22v1h-1v-1z"/><path fill="#21262E" d="M36 18h1v1h-1z"/><path fill="#121217" d="M36 19h1v1h-1z"/><path fill="#B0B3B8" d="M36 20h1v1h-1z"/><path fill="#573439" d="M31 35v1h-1v1h-1v-1h-1v-1h-1v-1h2v-1h2z"/><path fill="#4F2E30" d="M31 35v-2h1v2z"/><path fill="#573E42" d="M30 37v-1h1v1z"/><path fill="#201518" d="M31 32v-1h1v1z"/><path fill="#382125" d="M31 32h1v1h-1z"/><path fill="#5A5A68" d="M35 16h-1v-1h1z"/><path fill="#5B6473" d="M34 16h1v2h-1v-1z"/><path fill="#201E21" d="M35 18v-1h1v1z"/><path fill="#444550" d="M36 21h1v1h-1z"/><path fill="#EFE3D7" d="M20 41v4h-1v-1h-1v-1h1v-2z"/><path fill="#F2E8DC" d="M19 41v2h-2v-2h1v-1h1z"/><path fill="#DFC5B8" d="M18 46h-1v-1h1z"/><path fill="#806563" d="M16 44h1v1h-1z"/><path fill="#CAB4AC" d="M21 40v1h-1v-1z"/><path fill="#3F2F2E" d="M21 40h-1v-2h1v1h2v1h-1z"/><path fill="#382125" d="M22 40h1v1h-1z"/><path fill="#746161" d="M24 41v1h-1v-1z"/><path fill="#37211E" d="M23 40v-1h3v1h-2z"/><path fill="#4A3A3B" d="M23 40h1v1h-1z"/><path fill="#352A2F" d="M27 40v2h-1v-2z"/><path fill="#865D58" d="M28 12v-2h1v3h-1z"/><path fill="#B58073" d="M27 8v3h-1V8z"/><path fill="#C39080" d="M26 7V5h1v2z"/><path fill="#B8887C" d="M28 12v2h-1v-2zm-2-5h1v1h-1z"/><path fill="#9B6963" d="M29 10h-1V9h1z"/><path fill="#C39080" d="M26 11h1v1h-1z"/><path fill="#865D58" d="M29 6h1v3h-1z"/><path fill="#553C40" d="M34 8v2h-1V9h-2V7h2v1z"/><path fill="#524F5A" d="M34 6v1h-1V6z"/><path fill="#644247" d="M31 8v2h-1V8z"/><path fill="#171215" d="M31 39v1h-1v-1z"/><path fill="#3A2529" d="M30 39v1h-1v-2h1z"/><path fill="#382125" d="M28 40h-1v-1h1z"/><path fill="#2B2326" d="M28 40v-1h1v1z"/><path fill="#DEB8A7" d="M23 8v7h-1V7h1z"/><path fill="#EDCCC0" d="M17 6V5h2V4h1v2h-3z"/><path fill="#EBCDBD" d="M22 8v2h-1V7h1z"/><path fill="#E8C1B3" d="M22 7h-1V6h-1V5h2v1z"/><path fill="#CB9B8B" d="M24 10V9h1v4h-1z"/><path fill="#D2A99A" d="M25 9h-1V6h1v2z"/><path fill="#D9AA9A" d="M24 10v3h-1v-3z"/><path fill="#C49483" d="M25 9V8h1v2h-1z"/><path fill="#333C48" d="M16 44v1h-2v-2h2z"/><path fill="#14161D" d="M13 43v-1h1v1z"/><path fill="#252126" d="M15 45h1v1h-1z"/><path fill="#171215" d="M16 46v-1h1v1z"/><path fill="#D0B1A2" d="M19 4v1h-1V4z"/><path fill="#C9A391" d="M18 4v1h-1V4z"/><path fill="#171215" d="M16 43h-1v-3h1z"/><path fill="#F2E8DC" d="M17 38h1v2h-1z"/><path fill="#EFE3D7" d="M17 40h1v1h-1z"/><path fill="#96736B" d="M18 35h1v1h-1z"/><path fill="#4E3F3C" d="M18 36h1v1h-1z"/><path fill="#71585B" d="M18 37h1v1h-1z"/><path fill="#77574F" d="M19 37v-4h1v4z"/><path fill="#876765" d="M20 33h-1v-1h1z"/><path fill="#201518" d="M14 22v-1h1v1z"/><path fill="#DFC5B8" d="M15 21h-1v-1h1z"/><path fill="#3F2F2E" d="M14 22h1v1h-1z"/><path fill="#EFD8C8" d="M16 11h3v3h-1v-1h-2z"/><path fill="#F2E8DC" d="M16 13h1v2h-1z"/><path fill="#D2A99A" d="M17 16v-1h3v1h-3z"/><path fill="#7F5B5E" d="M15 21v-3h1v3z"/><path fill="#563337" d="M16 19v-1h1v1z"/><path fill="#EDD3C4" d="M17 18v-1h1v1z"/><path fill="#08070A" d="M18 17h-1v-1h3v1h-1z"/><path fill="#607486" d="M15 41v2h-1v-2z"/><path fill="#F8F3EA" d="M19 10h-2V7h3v2h-1z"/><path fill="#EDD3C4" d="M19 13h1V9h1v5h-2z"/><path fill="#F2DBCE" d="M20 11v2h-1v-2z"/><path fill="#F2E8DC" d="M20 9v1h-1V9z"/><path fill="#F2DBCE" d="M18 7h-1V6h1z"/><path fill="#F7E4D8" d="M18 25h-2v-1h2z"/><path fill="#2B1618" d="M15 24v-1h1v1z"/><path fill="#F0DED1" d="M19 27v-2h1v2z"/><path fill="#B8887C" d="M18 25v-1h1v1z"/><path fill="#E4C5B6" d="M19 27h1v1h-1z"/><path fill="#FAEADF" d="M20 29v-1h2v1z"/><path fill="#B2897B" d="M20 31v-1h2v1h-1z"/><path fill="#F3D3C6" d="M22 30v-1h1v1z"/><path fill="#6B3F39" d="M20 31h1v2h-1v-1z"/><path fill="#3D2E30" d="M30 37h1v1h-1z"/><path fill="#2A1B1E" d="M30 38h1v1h-1z"/><path fill="#4F2E30" d="M34 12v2h-4v-1h1v-1h1v1h1v-2h1z"/><path fill="#563337" d="M34 11h-1v2h-1v-1h-1v-2h1V9h1v1h1z"/><path fill="#553C40" d="M33 14h2v1h-2z"/><path fill="#55464F" d="M33 7h1v1h-1z"/><path fill="#4F2F34" d="M32 25v3h-1v-3z"/><path fill="#644247" d="M32 30h-2v-1h2z"/><path fill="#865D58" d="M33 24v1h-1v-1z"/><path fill="#4E222D" d="M32 29h-1v-1h1z"/><path fill="#44272C" d="M31 32v1h-1v-1z"/><path fill="#301C1F" d="M30 30v1h-1v-1z"/><path fill="#644247" d="M29 31h1v1h-1z"/><path fill="#201E21" d="M34 23v1h-1v-1z"/><path fill="#696A75" d="M35 22v1h-1v-1z"/><path fill="#51525E" d="M36 21v1h-1v-1z"/><path fill="#121217" d="M35 18h1v1h-1z"/><path fill="#353740" d="M35 19h1v1h-1z"/><path fill="#444550" d="M35 20h1v1h-1z"/><path fill="#4F2E30" d="M27 35h1v1h1v2h-1v-1h-1v-1z"/><path fill="#4E222D" d="M29 33v1h-2v-1l1-1h1z"/><path fill="#301C1F" d="M29 33v-1h1v1z"/><path fill="#61464B" d="M29 38v-1h1v1z"/><path fill="#71585B" d="M27 34v1h-1v-1z"/><path fill="#423239" d="M33 15h1v1h-2v-1z"/><path fill="#625A63" d="M34 16v1h-1v-1z"/><path fill="#55464F" d="M35 18v1h-1v-1z"/><path fill="#574149" d="M33 17h1v1h-1z"/><path fill="#E5D2C4" d="M20 40v1h-1v-1z"/><path fill="#E8D8CD" d="M18 40v-1h1v1z"/><path fill="#4E3F3C" d="M19 37h1v2h-1v-1z"/><path fill="#6D544E" d="M22 39h-1v-1h1z"/><path fill="#876765" d="M22 39v-1h1v1z"/><path fill="#77574F" d="M20 38v-1h1v1z"/><path fill="#8F7B76" d="M19 39h1v1h-1z"/><path fill="#8D4F4B" d="M26 39h-2v-1h2z"/><path fill="#462424" d="M27 39v1h-1v-1z"/><path fill="#96736B" d="M24 38v1h-1v-1z"/><path fill="#6B4647" d="M30 13h-1v-3h1v2z"/><path fill="#7B4A49" d="M28 14v-1h1v1h-1z"/><path fill="#BE8B7C" d="M25 10h1v1h-1z"/><path fill="#E4C5B6" d="M27 13v2h-1v-2z"/><path fill="#D2A99A" d="M27 13h-1v-1h1z"/><path fill="#A9716A" d="M27 15v-1h1v1h-1z"/><path fill="#77574F" d="M30 10h-1V9h1z"/><path fill="#B58073" d="M26 12v1h-1v-2h1z"/><path fill="#5C393F" d="M30 10h1V9h1v1h-1v2h-1z"/><path fill="#2B1618" d="M28 38h1v1h-1z"/><path fill="#806563" d="M28 38v1h-1v-1z"/><path fill="#EBCDBD" d="M19 14h3v1h-4v-1z"/><path fill="#B58073" d="M23 15v-1h1v1z"/><path fill="#EECFBE" d="M21 13v-1h1v1z"/><path fill="#F0DED1" d="M21 13h1v1h-1z"/><path fill="#CB9B8B" d="M24 14h-1v-1h1zm-2 1h1v1h-1z"/><path fill="#E9C6B7" d="M21 11v-1h1v1z"/><path fill="#E3BBAD" d="M21 11h1v1h-1z"/><path fill="#F2DBCE" d="M20 7h-1V6h1z"/><path fill="#F7E4D8" d="M19 6v1h-1V6z"/><path fill="#F2DBCE" d="M21 9h-1V7h1z"/><path fill="#EDCCC0" d="M21 7h-1V6h1z"/><path fill="#D9AA9A" d="M24 14v-1h1v2h-1z"/><path fill="#A09998" d="M19 38v1h-1v-1z"/><path fill="#BE8B7C" d="M20 33h1v2h-1z"/><path fill="#9E7067" d="M20 35h1v1h-1z"/><path fill="#876765" d="M20 36h1v1h-1z"/><path fill="#F1E2D5" d="M15 21h1v1h-1z"/><path fill="#FAEADF" d="M15 22h2v1h-2z"/><path fill="#F0DED1" d="M18 14v1h-1v-2h1z"/><path fill="#D0B1A2" d="M20 15h1v1h-1z"/><path fill="#0D0B0E" d="M16 19h1v1h-1z"/><path fill="#876765" d="M16 20h1v1h-1z"/><path fill="#3A2529" d="M17 18h1v1h-1z"/><path fill="#DCB1A2" d="M18 17h1v1h-1z"/><path fill="#0D0B0E" d="M20 16h1v1h-1z"/><path fill="#CA9687" d="M19 18v-1h1v1z"/><path fill="#B0B3B8" d="M16 23h1v1h-1z"/><path fill="#E8D8CD" d="M17 24v-1h1v1z"/><path fill="#D8BFB6" d="M20 26v-2h1v2z"/><path fill="#E8C1B3" d="M20 26h1v1h-1z"/><path fill="#EDCCC0" d="M20 24v1h-1v-1z"/><path fill="#A9716A" d="M18 24v-1h1v1z"/><path fill="#CA9687" d="M20 27h1v1h-1z"/><path fill="#EFD8C8" d="M21 28v-1h2v1h-1z"/><path fill="#E8C1B3" d="M22 28h1v1h-1z"/><path fill="#B58073" d="M22 30h1v1h-1z"/><path fill="#9B6963" d="M21 32v-1h1v1z"/><path fill="#D2A99A" d="M23 30v-1h1v1z"/><path fill="#E8C1B3" d="M21 32h1v1h1-2z"/><path fill="#5A3639" d="M29 14v-1h1v1h3v1h-4z"/><path fill="#563337" d="M30 12h1v1h-1z"/><path fill="#44272C" d="M31 25v3h-1v-4h1z"/><path fill="#6B4647" d="M31 25v-1h1v1z"/><path fill="#573439" d="M30 30h-1v-1h1z"/><path fill="#5A3639" d="M30 28h1v1h-1z"/><path fill="#625A63" d="M32 24h-1v-1h2v1z"/><path fill="#2B1618" d="M29 30v1h-1v-1z"/><path fill="#4F2F34" d="M28 31h1v1h-1z"/><path fill="#625A63" d="M34 22v1h-1v-1z"/><path fill="#55606D" d="M35 20v2h-1v-2z"/><path fill="#352A2F" d="M35 20h-1v-1h1z"/><path fill="#6B4647" d="M28 38h-1v-1h1z"/><path fill="#573439" d="M26 35h1v1h-1z"/><path fill="#7B4A49" d="M26 36h1v1h-1z"/><path fill="#C45D6B" d="M27 34h-2v-1h2z"/><path fill="#83494E" d="M28 32v1h-1v-1z"/><path fill="#6C4C4A" d="M25 34h1v1h-1z"/><path fill="#573E42" d="M31 15h1v1h-1z"/><path fill="#71585B" d="M33 16v1h-1v-1z"/><path fill="#1A171B" d="M33 18h1v1h-1v-1z"/><path fill="#6C4C4A" d="M32 17h1v1h-1z"/><path fill="#B2897B" d="M21 38v-1h1v1z"/><path fill="#C9A391" d="M22 38v-1h1v1z"/><path fill="#CA9687" d="M25 38h-1v-1h1z"/><path fill="#A9716A" d="M25 38v-1h1v1z"/><path fill="#4F2E30" d="M27 38v1h-1v-1z"/><path fill="#BE8B7C" d="M24 37v1h-1v-1z"/><path fill="#67363A" d="M29 14v1h-1v-1z"/><path fill="#8D4F4B" d="M25 15v-1h1v2h-1z"/><path fill="#CA9687" d="M26 16v-1h1v1z"/><path fill="#A9716A" d="M26 14h-1v-1h1z"/><path fill="#936259" d="M27 16v-1h1v1h-1z"/><path fill="#DEB8A7" d="M21 16v-1h1v1z"/><path fill="#9D4F50" d="M23 16v-1h1v1z"/><path fill="#B8887C" d="M22 16h1v1h-1z"/><path fill="#E09396" d="M24 16v-1h1v1z"/><path fill="#EABBAB" d="M21 33h2v1h-2z"/><path fill="#DCB1A2" d="M21 34h1v1h-1z"/><path fill="#CB9B8B" d="M21 35h2v1h-1v1h-1v-1z"/><path fill="#E9D4C5" d="M16 21h1v1h-1z"/><path fill="#DBBBAA" d="M18 23h-1v-1h1z"/><path fill="#A09998" d="M17 19h1v1h-1z"/><path fill="#61464B" d="M17 20h1v1h-1z"/><path fill="#151921" d="M18 20v-2h2v1h-1v1z"/><path fill="#806563" d="M22 16v1h-1v-1z"/><path fill="#936259" d="M20 18v-1h1v1z"/><path fill="#83494E" d="M21 26v-1h1v1z"/><path fill="#D4D4D9" d="M21 24h-1v-1h1z"/><path fill="#BA928A" d="M22 25h-1v-1h1z"/><path fill="#DFAAA1" d="M21 26h1v1h-1z"/><path fill="#BDA79D" d="M20 23v1h-1v-1z"/><path fill="#CB9B8B" d="M20 23h-2v-1h2z"/><path fill="#EBCDBD" d="M22 27v-2h1v1h1v1h-1z"/><path fill="#F3D3C6" d="M23 27h1v1h-1z"/><path fill="#541719" d="M23 28h1v1h-1z"/><path fill="#936259" d="M23 30h1v1h-1z"/><path fill="#EFC9B6" d="M22 32v-1h1v1z"/><path fill="#B58073" d="M24 30v-1h1v1z"/><path fill="#E09396" d="M22 32h1v1h-1z"/><path fill="#8A5854" d="M29 15h1v1h-1z"/><path fill="#7C5551" d="M30 16v-1h1v1z"/><path fill="#382125" d="M30 24v4h-1v-2h-1v-1h1v-1z"/><path fill="#08070A" d="M31 23v1h-1v-1z"/><path fill="#44272C" d="M29 30h-1v-1h1z"/><path fill="#4F2F34" d="M29 28h1v1h-1z"/><path fill="#4F2E30" d="M32 23h-1v-2h1v1z"/><path fill="#5C393F" d="M32 23v-1h1v1z"/><path fill="#382125" d="M28 30v1h-1v-1z"/><path fill="#4E222D" d="M27 31h1v1h-1z"/><path fill="#55464F" d="M34 20v2h-1v-2z"/><path fill="#21262E" d="M34 20h-1v-1h1z"/><path fill="#7C5551" d="M27 38h-1v-1h1z"/><path fill="#67363A" d="M25 35h1v1h-1z"/><path fill="#CA897E" d="M25 36h1v1h-1v-1z"/><path fill="#E27C8E" d="M23 34v-1h2v1h-1z"/><path fill="#822F34" d="M26 33h-1v-1h1z"/><path fill="#611E2F" d="M26 33v-1h1v1z"/><path fill="#9B6963" d="M24 34h1v2h-1v-1z"/><path fill="#4A3A3B" d="M32 16v1h-1v-1z"/><path fill="#0F0F15" d="M32 18h1v1h-2v-1z"/><path fill="#876765" d="M32 18h-1v-1h1z"/><path fill="#DEB8A7" d="M22 37v-1h1v1z"/><path fill="#D9AA9A" d="M24 36h1v1h-1z"/><path fill="#EBCDBD" d="M24 36v1h-1v-1z"/><path fill="#7B4A49" d="M29 15v1h-1v-1z"/><path fill="#AE7D70" d="M25 16h1v1h-1z"/><path fill="#A9716A" d="M26 17v-1h1v1z"/><path fill="#7B4A49" d="M27 17v-1h1v1z"/><path fill="#A9716A" d="M23 17v-1h1v1h-1z"/><path fill="#746161" d="M22 17h1v1h-1z"/><path fill="#CA897E" d="M24 17v-1h1v1z"/><path fill="#D9AA9A" d="M23 35h-1v-1h1z"/><path fill="#BE8B7C" d="M24 36h-1v-1h1z"/><path fill="#BDA79D" d="M17 21h1v1h-1z"/><path fill="#96736B" d="M18 22v-2h1v2z"/><path fill="#130D0E" d="M20 18h1v1h-1z"/><path fill="#353740" d="M19 20v-1h1v1z"/><path fill="#6B3F39" d="M22 17v1h-1v-1z"/><path fill="#3D2E30" d="M22 24h-1v-1h1z"/><path fill="#AE7D70" d="M20 23v-1h1v1z"/><path fill="#83494E" d="M23 25h-1v-1h1z"/><path fill="#6B3F39" d="M19 22v-1h1v1z"/><path fill="#F3D3C6" d="M23 25v-1h1v-2h1v4h-2z"/><path fill="#FCE3D5" d="M24 26h1v2h-1v-1z"/><path fill="#8D4F4B" d="M24 28h1v1h-1z"/><path fill="#A4766C" d="M24 30h1v1h-1zm-1 2v-1h1v1z"/><path fill="#8A5854" d="M25 30v-1h1v1z"/><path fill="#EED0C4" d="M23 32h1v1h-1z"/><path fill="#1A171B" d="M29 16h1v1h-1z"/><path fill="#040307" d="M30 17v-1h1v1z"/><path fill="#574149" d="M28 25v1h-1v-2h1z"/><path fill="#604950" d="M28 26h1v1h-1z"/><path fill="#765A67" d="M28 27h1v1h-1z"/><path fill="#2B1618" d="M30 23v1h-1v-1z"/><path fill="#453339" d="M28 25v-1h1v1z"/><path fill="#47262C" d="M31 21v2h-1v-3h1z"/><path fill="#301C1F" d="M28 30h-1v-2h1v1z"/><path fill="#573E42" d="M28 29v-1h1v1z"/><path fill="#44272C" d="M33 21v1h-1v-1z"/><path fill="#563337" d="M31 21v-1h1v1z"/><path fill="#CA9687" d="M27 30v1h-1v-1z"/><path fill="#541719" d="M26 31h1v1h-1z"/><path fill="#4F2E30" d="M32 21v-1h1v1z"/><path fill="#22424E" d="M33 20h-1v-1h1z"/><path fill="#DFAAA1" d="M24 33v-1h1v1z"/><path fill="#CB9B8B" d="M24 35h-1v-1h1z"/><path fill="#8D4F4B" d="M26 31v1h-1v-1z"/><path fill="#3F4049" d="M31 18v1h-1v-1z"/><path fill="#201E21" d="M32 19v1h-1v-1z"/><path fill="#6C4C4A" d="M31 18h-1v-1h1z"/><path fill="#453339" d="M29 16v1h-1v-1z"/><path fill="#553C40" d="M26 17v1h-1v-1z"/><path fill="#2B2A2F" d="M26 18v-1h1v1z"/><path fill="#0D0B0E" d="M27 18v-1h1v1z"/><path fill="#0F0F15" d="M25 17v1h-2v-1h1z"/><path fill="#5A3639" d="M22 18h1v1h-1z"/><path fill="#8A5854" d="M20 21h-1v-1h1z"/><path fill="#37211E" d="M22 18v1h-1v-1z"/><path fill="#8F7B76" d="M20 20v-1h1v1z"/><path fill="#EECFBE" d="M21 23v-1h1v1z"/><path fill="#F2D9CB" d="M23 24h-1v-1h1z"/><path fill="#936259" d="M22 22h-2v-1h2z"/><path fill="#E0B4AA" d="M25 27v-5h1v5z"/><path fill="#CAB4AC" d="M23 24v-1h1v1z"/><path fill="#EABBAB" d="M25 22h-1v-1h1z"/><path fill="#301C1F" d="M24 23h-1v-1h1z"/><path fill="#CA897E" d="M25 27h1v1h-1z"/><path fill="#67363A" d="M25 28h1v1h-1z"/><path fill="#83494E" d="M26 31h-1v-1h1z"/><path fill="#9D4F50" d="M25 31v1h-1v-1z"/><path fill="#3A2327" d="M27 30h-1v-1h1z"/><path fill="#3A2529" d="M30 17v1h-1v-1z"/><path fill="#644247" d="M26 25v-3h1v3z"/><path fill="#3D2E30" d="M27 24v-1h1v1z"/><path fill="#625A63" d="M28 26v1h-1v-1z"/><path fill="#876765" d="M26 25h1v1h-1z"/><path fill="#53424B" d="M27 27h1v1h-1z"/><path fill="#382125" d="M28 24v-1h1v1z"/><path fill="#574149" d="M30 22v1h-1v-1z"/><path fill="#2B1618" d="M30 22h-1v-2h1z"/><path fill="#2B2A2F" d="M31 19v1h-1v-1z"/><path fill="#47262C" d="M27 29h-1v-1h1z"/><path fill="#2A1B1E" d="M29 17v1h1v1h-2v-2z"/><path fill="#0B0C11" d="M26 18h1v2h-1v-1h-1v-1z"/><path fill="#21191C" d="M27 20v-2h1v1h1v2h-2z"/><path fill="#1A171B" d="M25 18v2h-1v-2z"/><path fill="#BDA79D" d="M24 18v1h-1v-1z"/><path fill="#9E7067" d="M22 19h1v1h-1z"/><path fill="#67363A" d="M21 21h-1v-1h1z"/><path fill="#2B1618" d="M22 19v1h-1v-1z"/><path fill="#EFE3D7" d="M23 22v1h-1v-1z"/><path fill="#FCE3D5" d="M23 22h-1v-1h1z"/><path fill="#4E222D" d="M21 20h1v1h-1z"/><path fill="#7C5551" d="M26 26h1v1h-1z"/><path fill="#DFAAA1" d="M25 22v-1h1v1z"/><path fill="#A09998" d="M23 22v-1h1v1z"/><path fill="#462424" d="M24 20h1v1h-1z"/><path fill="#67363A" d="M26 27h1v1h-1z"/><path fill="#0D0B0E" d="M27 21h1v2h-1v-1z"/><path fill="#83494E" d="M27 21v1h-1v-1z"/><path fill="#2B2A2F" d="M28 23v-1h1v1z"/><path fill="#171215" d="M29 20v-1h1v1z"/><path fill="#3D2E30" d="M29 22h-1v-1h1z"/><path fill="#E0B4AA" d="M25 20v-1h1v1z"/><path fill="#4E222D" d="M27 21h-1v-1h1z"/><path fill="#D8BFB6" d="M23 20v-1h1v1z"/><path fill="#AE7D70" d="M22 21v-1h1v1z"/><path fill="#EABBAB" d="M26 20v1h-1v-1z"/><path fill="#FCE3D5" d="M23 21v-1h1v1z"/></svg>
