<svg xmlns="http://www.w3.org/2000/svg" baseProfile="tiny-ps" version="1.2" viewBox="0 0 50 50"><title>Romuald Bulyshko</title><path fill="#81CCD9" d="M2 50H0V0h13v2h-1v8h-1v1h1v6h-2v5h1v3h1v2h1v1h1v2h1v3h1v2h-2v1h-3v1h-1v1H8v1H7v1H6v5H5v1H3v1H2l1 1v1H2z"/><path fill="#82CCD8" d="M35 0h15v46h-2v-1h-1v-1h-1v-2h-1v-2h-1v-2h-2v-1h-3v-1h-3v-1h-1v-2h1v-3h1v-3h1v-2h1v-2h1v-6h-2v-2h1V8h-1V5h-1V2h-1V1h-1z"/><path fill="#0C0B10" d="M37 36v1h1v1h1v-1h1v2h1v-1h1v1h1v4h-1v-1h-1v1h1v1h-1v1h-2v1h-2v1h-1v1h1v-1h3v-1h1v1h1v-1h4v1h-1v1h-1v1h2v-1h1v1h1v1H38v-1h-2v1h-2v-1h-1v-2h1v-2h1v-2h1v2h1v-2h-1v-1h-1v-3h-1v-3h2z"/><path fill="#DCB4A8" d="M24 50h-2v-2h-1v-1h1v-1h-1v-5h1l1 1v2h4v1h-1v1h-1v3h-1z"/><path fill="#57616D" d="M4 46h1v-1h1v2h1v1h1v1h2v1H6v-1H5v-2H4z"/><path fill="#402B30" d="M29 50h-1v-3h1v-1h1v2h-1z"/><path fill="#201D22" d="M23 0v1h-1v1h1v1h-2V0z"/><path fill="#0C0B10" d="M23 2h-1V1h1V0h1v1h1v2h-1V2z"/><path fill="#201E23" d="M21 50h-3v-1h1v-1h1v1h1zM35 0v1h1v1h-2V1h-1V0zm-4 0h1v1h1v1h-3V1h1zm2 47v2l-1 1h-1v-2h1v-1z"/><path fill="#7EC9D6" d="M49 46h1v3h-2v-1h1v-1z"/><path fill="#57616D" d="M13 50h-1v-1h-1v-1h2z"/><path fill="#825A58" d="M28 48v1l-1 1h-1v-2z"/><path fill="#B4857B" d="M26 48v2h-2v-1h1v-1z"/><path fill="#0C0B10" d="M30 1v1h-2V1h1V0h1z"/><path fill="#5A3D41" d="M29 50v-2h1v2z"/><path fill="#201E23" d="M25 1h-1V0h2v1zm11 49v-1h2v1z"/><path fill="#402B30" d="M30 50v-2h1v2z"/><path fill="#201E23" d="M15 50h-1v-2h1v1z"/><path fill="#434A54" d="M14 48v2h-1v-2z"/><path fill="#444953" d="M18 49v1h-1v-2h1z"/><path fill="#5A3D41" d="M21 0v1h-1V0z"/><path fill="#57616C" d="M15 50v-1h1v1z"/><path fill="#0C0B10" d="M16 50v-1h1v1zm16 0v-1h1v1z"/><path fill="#201E23" d="M33 50v-1h1v1z"/><path fill="#1F1E24" d="M48 49h1v1h-1z"/><path fill="#201E23" d="M11 49h1v1h-1z"/><path fill="#825A58" d="M21 50v-1h1v1z"/><path fill="#5A3D41" d="M27 50v-1h1v1z"/><path fill="#0C0B10" d="M11 49v1h-1v-1z"/><path fill="#201E23" d="M5 50H4v-1h1z"/><path fill="#434A54" d="M5 50v-1h1v1z"/><path fill="#1F1E24" d="M2 50v-1h1v1z"/><path fill="#57616D" d="M3 50v-1h1v1z"/><path fill="#6C8896" d="M49 50v-1h1v1z"/><path fill="#3F2B31" d="M33 1h-1V0h1zm-3 0V0h1v1z"/><path fill="#201E23" d="M29 0v1h-1V0z"/><path fill="#0C0B10" d="M28 0v1h-1V0z"/><path fill="#444953" d="M27 0v1h-1V0z"/><path fill="#B3857C" d="M20 0v1h-1V0z"/><path fill="#825A58" d="M19 0v1h-1V0z"/><path fill="#5A3D41" d="M18 0v1h-1V0z"/><path fill="#402B30" d="M17 0v1h-1V0z"/><path fill="#0C0B10" d="M16 0v1h-1V0z"/><path fill="#201E23" d="M15 0v1h-1V0z"/><path fill="#9FA6A8" d="M14 0v1h-1V0z"/><path fill="#DCB4A8" d="M14 29v-4h-1v-2h1v1h1v3h1v3h-1v-1z"/><path fill="#B3867C" d="M12 17V9h1v8z"/><path fill="#201E23" d="M12 36h2v1h-1v1h-2v1h-1v-2h2z"/><path fill="#EED8CC" d="M14 27h-2v-4h1v3h1z"/><path fill="#434A54" d="M4 49H3v-3h1v1h1v2z"/><path fill="#593D41" d="M12 7V4h1v3z"/><path fill="#434A54" d="M7 40v-1h1v-1h1v2H8zm-1 4v-1h2v1H7z"/><path fill="#1F1E24" d="M7 43H6v-2h1v1z"/><path fill="#DBB4A9" d="M12 23v2h-1v-2z"/><path fill="#815B59" d="M12 7h1v2h-1z"/><path fill="#6D8896" d="M16 33h-1v-1h1z"/><path fill="#B3867C" d="M12 23h-1v-1h1z"/><path fill="#56616D" d="M12 36v1h-1v-1z"/><path fill="#6C8896" d="M3 47v1H2v-1z"/><path fill="#815B59" d="M16 34v-1h1v1z"/><path fill="#434A54" d="M14 36v-1h1v1z"/><path fill="#201E23" d="M15 36v-1h1v1z"/><path fill="#A0A5A8" d="M16 34h1v1h-1z"/><path fill="#6D8896" d="M7 41H6v-1h1z"/><path fill="#57616D" d="M6 44h1v1H6z"/><path fill="#0C0B10" d="M9 39v-1h1v1z"/><path fill="#A0A5A8" d="M11 17h1v1h-1z"/><path fill="#815B59" d="M10 20v-1h1v1z"/><path fill="#5A3D41" d="M11 19h-1v-1h1z"/><path fill="#6C8896" d="M12 3V2h1v1z"/><path fill="#563F43" d="M13 1h1v1h-1z"/><path fill="#57616D" d="M12 3h1v1h-1z"/><path fill="#9FA6A8" d="M13 27h1v1h-1z"/><path fill="#EED8CC" d="M11 22h-1v-1h1z"/><path fill="#DBB4A9" d="M11 21h-1v-1h1z"/><path fill="#6D8896" d="M14 29h1v1h-1z"/><path fill="#9FA6A8" d="M12 10v1h-1v-1z"/><path fill="#EAD9CF" d="M11 18h-1v-1h1z"/><path fill="#201E23" d="M49 46v1h-2v1h-1v1h-2v-1h1v-1h1v-1h-4v1h-1v-1h-1v-1h1v-1h1v-1h1v-1h1v-1h1v2h1v1h1v2h1zM37 3v2h1v4h-1V7h-1V5h-1V4h-1V3h2z"/><path fill="#0C0B10" d="M38 17v3h-2v-1h1v-2h-2v-1h3z"/><path fill="#6C8896" d="M37 27v3h-1v-7h1v3z"/><path fill="#434A54" d="M39 9v3h-2v-2h1V9z"/><path fill="#402B30" d="M40 20v1h-1v-3h1v1h-1v1z"/><path fill="#593D41" d="M39 21h1v1h-2v-1z"/><path fill="#434A54" d="M36 36h-1v-1h1zm2 0h1v1h-1z"/><path fill="#1F1E24" d="M38 36v1h-1v-1z"/><path fill="#201E23" d="M35 33v1h-1v-1z"/><path fill="#6C8896" d="M36 32v1h-1v-1z"/><path fill="#434A54" d="M34 34h1v1h-1z"/><path fill="#56616D" d="M46 43h-1v-1h1z"/><path fill="#1F1E24" d="M43 40v-1h1v1z"/><path fill="#434A54" d="M45 41h-1v-1h1z"/><path fill="#6C8896" d="M42 38h-1v-1h1z"/><path fill="#434A54" d="M41 37v1h-1v-1z"/><path fill="#56616D" d="M48 46h-1v-1h1z"/><path fill="#6C8896" d="M44 39h-1v-1h1z"/><path fill="#1F1E24" d="M43 38v1h-1v-1z"/><path fill="#201E23" d="M38 16h-1v-1h1z"/><path fill="#6C8896" d="M39 14v1h-1v-1z"/><path fill="#434A54" d="M39 14h-1v-1h1z"/><path fill="#57616D" d="M39 13h-1v-1h1z"/><path fill="#9FA6A8" d="M39 9h-1V8h1zm1 9h-1v-1h1z"/><path fill="#57616C" d="M39 17v1h-1v-1z"/><path fill="#434A54" d="M37 3h-1V2h1z"/><path fill="#3F2B31" d="M39 24v1h-1v-1z"/><path fill="#593D41" d="M39 24h-1v-1h1z"/><path fill="#563F43" d="M37 26v-1h1v1z"/><path fill="#9FA6A8" d="M39 22h1v1h-1z"/><path fill="#57616D" d="M36 32h-1v-1h1z"/><path fill="#56616D" d="M37 26h1v1h-1z"/><path fill="#434A54" d="M36 31h-1v-1h1z"/><path fill="#593D41" d="M40 20h-1v-1h1z"/><path fill="#402B30" d="M34 35h1v1h-3v1h-1v-4h-1v-3h3v1h-2v1h1v2h1v1z"/><path fill="#434A54" d="M35 42v1h-1v2h-2v-6h1v1h1v1h1z"/><path fill="#57616C" d="M34 40h-1v-4h1v3z"/><path fill="#3F2B31" d="M44 40v2h-1v-2z"/><path fill="#201E23" d="M38 41h2v1h-2zm0 0h-2v-1h2zm-1 6v-1h2v1z"/><path fill="#3F2B31" d="M34 45v-2h1v2z"/><path fill="#201E23" d="M36 43h1v2h-1z"/><path fill="#3F2B31" d="M33 45h1v1h-1z"/><path fill="#201E23" d="M42 43h-1v-1h1z"/><path fill="#211E23" d="M33 46h1v1h-1z"/><path fill="#201E23" d="M35 43v-1h1v1z"/><path fill="#444A54" d="M39 47v-1h1v1z"/><path fill="#201E23" d="M37 47v1h-1v-1z"/><path fill="#3F2B31" d="M35 41h-1v-1h1z"/><path fill="#201E23" d="M35 40h-1v-1h1z"/><path fill="#1F1E24" d="M48 48v1h-1v-1z"/><path fill="#3F2B31" d="M40 46h-1v-1h1z"/><path fill="#201E23" d="M38 37h1v1h-1z"/><path fill="#201D22" d="M40 38h1v1h-1z"/><path fill="#EED8CB" d="M16 35h1v2h1v2h1v1h1v1h1v5h1v1h-1v1h-1v-1h-2v-2h-1v-1h-1v-8zm10 9h-3v-2h2v1h1z"/><path fill="#5A3D41" d="M27 45v-2h1v2z"/><path fill="#825A58" d="M26 48h-1v-1h1z"/><path fill="#B3857C" d="M27 43v1h-1v-1z"/><path fill="#5A3D41" d="M22 41h-1v-1h1z"/><path fill="#825A58" d="M26 46v-1h1v1z"/><path fill="#EED8CB" d="M22 49h-1v-1h1z"/><path fill="#B3857C" d="M23 42h-1v-1h1z"/><path fill="#EED8CB" d="M23 47v-1h1v1z"/><path fill="#B3857C" d="M26 47h-1v-1h1z"/><path fill="#434A54" d="M6 45h1v2H6zm2 3H7v-1h1v1zm1 1H8v-1h1z"/><path fill="#0C0B10" d="M9 49v-1h1v1z"/><path fill="#5A3D41" d="M33 45v1h-1v1h-1v1h-1v-2h1v-1h-1v1h-1v-4h1v-1h1v1h1v3zm-7 3v-1h2v1zm3-2v1h-1v-1z"/><path fill="#825A58" d="M22 3h2v1h-2z"/><path fill="#B3857C" d="M22 3v1h-1V3z"/><path fill="#402B30" d="M24 3h-1V2h1zm-4-1h1v1h-1z"/><path fill="#211E23" d="M25 3V2h2v1z"/><path fill="#3F2B31" d="M26 2h-1V1h1z"/><path fill="#402B30" d="M24 4V3h1v1z"/><path fill="#DBB4A9" d="M19 47h1v1h-1z"/><path fill="#0C0B10" d="M18 49v-1h1v1z"/><path fill="#815B59" d="M21 48v1h-1v-1z"/><path fill="#0C0B10" d="M36 2v1h-2V2zm-3 0V1h1v1z"/><path fill="#57616D" d="M37 10v3h-1v-3h-1V8h-1V6h-1V5h-1V4h-1V3h1V2h1v2h1v1h2v1h-1v1h1v1h1v1z"/><path fill="#444A54" d="M32 2v1h-1V2z"/><path fill="#3F2B31" d="M31 2v1h-1V2z"/><path fill="#402B30" d="M32 47v-1h1v1zm-1 1v-1h1v1z"/><path fill="#56616D" d="M48 47h1v1h-1z"/><path fill="#434A54" d="M10 49v-3h2v1h-1v2z"/><path fill="#201E23" d="M11 48v-1h1v1z"/><path fill="#434A54" d="M12 48v-1h1v1z"/><path fill="#211E23" d="M30 2v1h-2V2z"/><path fill="#201E23" d="M27 1h1v1h-1z"/><path fill="#57616D" d="M13 48v-1h-1v-1h-2v-1h1v-1h2l1 1v2h1v1h-1z"/><path fill="#434A54" d="M15 48v-1h-1v-1h2v3h-1z"/><path fill="#0C0B10" d="M18 48h-1v-1h1z"/><path fill="#3F2B31" d="M16 49v-1h1v1z"/><path fill="#211E22" d="M19 1h1v1h-1z"/><path fill="#402B30" d="M20 1h1v1h-1z"/><path fill="#0C0B10" d="M27 1v1h-1V1z"/><path fill="#5A3D41" d="M19 1v1h-1V1z"/><path fill="#402B30" d="M18 1v2h-1V1z"/><path fill="#5A3D41" d="M17 1v1h-1V1z"/><path fill="#402B30" d="M16 1v1h-1V1z"/><path fill="#0D0B0F" d="M15 1v1h-1V1z"/><path fill="#EED8CB" d="M16 27h-1v-3h2v-1h1v2h1v-1h1v3h-1v2h1v-1h1v-1h1v-2h1v-1h1v-2h1v6h-3v1h1v1h-4v1h-2v-1h-1z"/><path fill="#EED8CC" d="M14 23h-1v-3h2v1h-1v1z"/><path fill="#B2867D" d="M15 31v-1h1v2h-1z"/><path fill="#B3867C" d="M14 26h-1v-1h1z"/><path fill="#EED8CC" d="M15 24h-1v-1h1z"/><path fill="#DCB4A8" d="M13 10V9h1V5h1V4h1v1h1v1h-1v2h-1v8h1v1h-3z"/><path fill="#57616C" d="M12 18v-1h1v1z"/><path fill="#0C0B10" d="M14 45h-1v-1h-2v-1h-1v-4h1v-1h2v-1h1v-1h2v3h-1v1h-1v1h-1v1h-1v1h2v1z"/><path fill="#825A58" d="M13 22v1h-1v-1z"/><path fill="#402B30" d="M13 4V2h1v3h-1z"/><path fill="#A1A5A6" d="M14 6v1h-1V6z"/><path fill="#815B59" d="M14 6h-1V5h1z"/><path fill="#201E23" d="M10 39v3H8v-1h1v-2z"/><path fill="#0C0B10" d="M9 40v1H8v-1z"/><path fill="#3F2B31" d="M8 40v1H7v-1z"/><path fill="#201E23" d="M8 47H7v-3h1v2z"/><path fill="#57616C" d="M8 44v-1h1v1zm-1-1v-1h1v1z"/><path fill="#444A54" d="M8 42H7v-1h1z"/><path fill="#EED8CC" d="M13 7h1v2h-1z"/><path fill="#B3867C" d="M17 33h-1v-1h1z"/><path fill="#DCB4A8" d="M11 22v-1h1v1z"/><path fill="#B3857C" d="M17 34v-1h1v1z"/><path fill="#825A58" d="M17 34h1v1h-1z"/><path fill="#EED8CC" d="M11 19v-1h1v1z"/><path fill="#DCB4A8" d="M11 19h2v2h-1v-1h-1z"/><path fill="#EED8CB" d="M11 20h1v1h-1z"/><path fill="#0C0B10" d="M48 47v1h-1v-1z"/><path fill="#3F2B31" d="m45 44-1-1h1zm-8-34V9h1v1z"/><path fill="#434A54" d="M37 8h-1V7h1z"/><path fill="#6D8896" d="M36 7h-1V6h1zm-1-2h-1V4h1zm-1-1h-1V3h1z"/><path fill="#57616C" d="M35 16v2h-1v-1h-1v-1h1v-1h1z"/><path fill="#6D8896" d="M35 16v-1h1v-2h1v3z"/><path fill="#3F2B31" d="M36 19v1h-2v-1h1z"/><path fill="#593D41" d="M38 18h1v2h-1z"/><path fill="#201E23" d="M37 18v1h-1v-1z"/><path fill="#6D8896" d="M37 18h-1v-1h1z"/><path fill="#201E23" d="M36 17v1h-1v-1z"/><path fill="#3F2B31" d="M37 20h1v1h-1z"/><path fill="#A0A5A8" d="M37 20v1h-1v-1z"/><path fill="#57616D" d="M34 20h1v2h1v8h-1v-7h-2v-1h1v-1z"/><path fill="#815B59" d="M38 25h-1v-1h1z"/><path fill="#3F2B31" d="M38 24h-1v-1h1z"/><path fill="#0C0B10" d="M36 23v-1h1v1z"/><path fill="#3F2B31" d="M37 15v-3h1v3z"/><path fill="#815B59" d="M38 21v-1h1v1z"/><path fill="#A0A5A8" d="M37 23v-2h1v2z"/><path fill="#402B30" d="M38 23v-1h1v1z"/><path fill="#3F2B31" d="M34 33v1h-1v-1z"/><path fill="#402B30" d="M35 32v1h-1v-1z"/><path fill="#211E22" d="M33 34h1v1h-1z"/><path fill="#5A3D41" d="M35 32h-1v-1h-1v-1h-4v-1h1v-1h1v1h1v-4h1v-1h2v7zm-5 1h1v4h-1v1h-3v-1h2v-1h-1v-1h-1v-1h2v-1z"/><path fill="#211E23" d="M33 33v1h-1v-2h-1v-1h2v1z"/><path fill="#211E22" d="M29 30h1v1h-2v-1z"/><path fill="#211E23" d="M31 37h1v1h-1z"/><path fill="#201E23" d="M33 36v1h-1v-1z"/><path fill="#211E22" d="M30 33h-1v-1h1z"/><path fill="#593D41" d="M30 32h-1v-1h1z"/><path fill="#402B30" d="M32 42h-1v-2h1z"/><path fill="#201E23" d="M32 40h-1v-1h1z"/><path fill="#3F2B31" d="M33 38v1h-1v-1z"/><path fill="#0C0B10" d="M33 38h-1v-1h1zm-17 2v3h-1v-3z"/><path fill="#444A54" d="M15 43h1v1h-2v-1z"/><path fill="#B3867C" d="M18 37h-1v-1h1z"/><path fill="#5A3D40" d="M18 36h-1v-1h1z"/><path fill="#815B59" d="M18 38v-1h1v1z"/><path fill="#402B30" d="M18 48v-1h1v1z"/><path fill="#DBB4A9" d="M17 45h1v1h-1v-1zm4-5v1h-1v-1z"/><path fill="#815B59" d="M16 44h1v1h-1z"/><path fill="#211E22" d="M17 46h1v1h-1z"/><path fill="#A1A5A6" d="M18 38h1v1h-1z"/><path fill="#57616C" d="M16 40h-1v-1h1z"/><path fill="#B3857C" d="M20 40h-1v-1h1z"/><path fill="#211E23" d="M25 42h-1v-3h1v1h1v2z"/><path fill="#825A58" d="M24 41v1h-1v-1z"/><path fill="#B3867C" d="M25 42h1v1h-1z"/><path fill="#402B30" d="M29 46h-1v1h-2v-1h1v-1h1v-2h-1v-1h2z"/><path fill="#5A3D40" d="M27 42v1h-1v-1z"/><path fill="#402B30" d="M24 41h-2v-1h-2v-2h1v1h3z"/><path fill="#0C0B10" d="M8 47v-1h1v2H8z"/><path fill="#3F2B31" d="M9 48v-1h1v1z"/><path fill="#211E23" d="M31 40v1h-1v-1z"/><path fill="#402B30" d="M30 46v-1h1v1zm0-5v1h-1v-1z"/><path fill="#DCB4A8" d="M26 4v2h-1v4h-1v2h1v4h-1v-2h-1v2h-6v-1h5v-3h-1v-2h1V7h-1V6h-1V4z"/><path fill="#825A58" d="M21 4h-1V3h1z"/><path fill="#5A3D41" d="M19 2h1v1h-1zm7 2h-1V3h2v1z"/><path fill="#0C0B10" d="M27 2h1v1h-1z"/><path fill="#1F1E24" d="M34 3h-1V2h1z"/><path fill="#5A3D41" d="M34 15h-2v2h-1v-2h-3v-1h1v-4h1V5h-2V4h1V3h1v1h1v1h1v1h1v1h1v2h1v6z"/><path fill="#444A54" d="M35 14v-4h1v4zm0-5h-1V8h1z"/><path fill="#444953" d="M32 5h-1V4h1zm-1-1h-1V3h1z"/><path fill="#434A54" d="M32 5h1v1h-1zm1 1h1v1h-1z"/><path fill="#201E23" d="M10 47H9v-1h1z"/><path fill="#402B30" d="M29 3v1h-2V3h1z"/><path fill="#0C0B10" d="M15 46h-1v-1h1z"/><path fill="#444A54" d="M10 46H9v-1h1z"/><path fill="#1F1E24" d="M11 44v1h-1v-1z"/><path fill="#201E23" d="M15 46v-1h2v1h-1z"/><path fill="#0C0B10" d="M16 46h1v-1 2h-1z"/><path fill="#57616C" d="M16 47h1v1h-1z"/><path fill="#825A58" d="M19 2v1h-1V2z"/><path fill="#211E22" d="M16 2h1v1h-1z"/><path fill="#EED8CB" d="M17 3h1v1h-1z"/><path fill="#5A3D41" d="M16 2v1h-1v1h-1V2h1z"/><path fill="#DCB4A8" d="M25 27v-5h-1v-1h1v-2h1v8z"/><path fill="#825A58" d="M20 38v-1h-1v-6h1v5h1v2z"/><path fill="#DCB4A8" d="M19 31v3h-1v-1h-1v-1h-1v-2h1v1z"/><path fill="#B4857B" d="M19 24v1h-1v-4h1v1h2v1h-2z"/><path fill="#DCB4A8" d="M22 26v1h-2v-3h1v2z"/><path fill="#B3857C" d="M20 31h-1v-1h4v1h-2z"/><path fill="#DCB4A8" d="M20 28v1h-1v-2h1zm-2-6v1h-1v-1z"/><path fill="#825A58" d="M22 26h-1v-1h1zm1-2v1h-1v-1z"/><path fill="#DBB4A9" d="M24 23v1h-1v-1z"/><path fill="#DCB4A8" d="M19 24v-1h1v1z"/><path fill="#A0A5A8" d="M17 23v1h-1v-1z"/><path fill="#211E22" d="M16 23v1h-1v-1z"/><path fill="#DCB4A8" d="M23 30v-1h1v1z"/><path fill="#825A58" d="M24 28h1v1h-1z"/><path fill="#402B30" d="M24 28v1h-1v-1z"/><path fill="#DCB4A8" d="M23 28v1h-1v-1z"/><path fill="#B3857C" d="M25 27h1v1h-1z"/><path fill="#B4857B" d="M20 28v-1h1v1z"/><path fill="#211E22" d="M24 23h-1v-1h1z"/><path fill="#0D0B0F" d="M13 20v-3h2v1h-1v2z"/><path fill="#825A58" d="M15 21v-3h1v2h1v1z"/><path fill="#402B30" d="M15 19v1h-1v-1z"/><path fill="#211E22" d="M14 22v-1h1v1z"/><path fill="#5A3D40" d="M12 21h1v1h-1z"/><path fill="#402B30" d="M14 22h1v1h-1z"/><path fill="#EED8CB" d="M20 6h1v1h1v3h-1v2h1v3h-5v1h-2V8h1V6h1V5h2V4h1z"/><path fill="#EED8CC" d="M16 18h-1v-1h3v1h-1z"/><path fill="#825A58" d="M17 17h-1v-1h1zM15 4V3h1v1z"/><path fill="#EED8CB" d="M17 5h-1V4h1z"/><path fill="#825A58" d="M14 4h1v1h-1z"/><path fill="#5A3D41" d="M13 18v1h-1v-1z"/><path fill="#444A54" d="M8 43v-1h2v1H9z"/><path fill="#6D8896" d="M15 40v2h-1v-2z"/><path fill="#402B30" d="M16 45h-2v-1h2z"/><path fill="#57616C" d="M14 42h1v1h-1zm0-1v1h-1v-1zm-3 3h-1v-1h1z"/><path fill="#444A54" d="M13 43h-1v-1h1z"/><path fill="#201E23" d="M13 43v-1h1v1z"/><path fill="#434A54" d="M8 44h1v1H8z"/><path fill="#3F2B31" d="M8 45h1v1H8zm2-2v1H9v-1z"/><path fill="#B4857B" d="M18 34h1v2h-1v-1z"/><path fill="#402B30" d="M32 16v-1h2v1h-1z"/><path fill="#5A3D41" d="M33 17h1v1h-2v-1z"/><path fill="#444A54" d="M35 19h-1v-1h1z"/><path fill="#815B59" d="M33 17h-1v-1h1z"/><path fill="#57616D" d="M35 14h1v1h-1z"/><path fill="#434A54" d="M37 21v1h-2v-2h1v1z"/><path fill="#201E23" d="M34 18v2h-1v-2z"/><path fill="#0C0B10" d="M35 19v-1h1v1z"/><path fill="#444953" d="M33 20h1v1h-1z"/><path fill="#201E23" d="M34 24h-1v-1h1z"/><path fill="#0C0B10" d="M34 24v-1h1v1z"/><path fill="#593D41" d="M33 22v1h-1v-1zm0-1h1v1h-1z"/><path fill="#5A3D41" d="M33 33v-1h1v1z"/><path fill="#402B30" d="M32 25v4h-1v-1h-1v1h-1v-2h1v-1h-2v-2h-1v-1h2v1h2v1z"/><path fill="#815B59" d="M33 24v1h-1v-1zm1 8h-1v-1h1z"/><path fill="#402B30" d="M29 30h-1v-1h1zm0 1v3h-2v-1h1v-1h-2v-1h1v-1h1v1zm-2 4h1v1h1v1h-2v-1z"/><path fill="#211E23" d="M28 38h1v2h-1v-1z"/><path fill="#402B30" d="M29 40v-2h1v2z"/><path fill="#825A58" d="M27 37v1h-1v-1z"/><path fill="#402B30" d="M31 37v1h-1v-1z"/><path fill="#825A58" d="M27 34v1h-1v-1z"/><path fill="#815B59" d="M28 38v1h-1v-1z"/><path fill="#0C0B10" d="M32 38v1h-1v-1zm-2 2v-1h1v1z"/><path fill="#5A3D40" d="M18 36h1v1h-1z"/><path fill="#5A3D41" d="M19 37h1v2h-1v-1z"/><path fill="#402B30" d="M27 38v1h1v1h-1v2h-1v-2h-1v-1h1v-1z"/><path fill="#825A58" d="M26 38v1h-5v-1h5z"/><path fill="#211E22" d="M27 42v-1h2v1z"/><path fill="#0D0B0F" d="M29 40h1v1h-1z"/><path fill="#B4857B" d="M27 4h1v3h1v2h-1v6h-1v-3h-1v2h-1v-2h-1v-2h1V6h1V4zm-3 12h2v-1h1v2h-5v-1h1z"/><path fill="#0D0B0F" d="M17 17v-1h4v1h-3z"/><path fill="#825A58" d="M26 15v1h-1v-2h1zm-5 2v-1h1v1zm3-1h-1v-1h1z"/><path fill="#B4857B" d="M23 15v-1h1v1zM20 4h-2V3h2z"/><path fill="#825A58" d="M28 14V9h1V7h-1V5h2v5h-1v4z"/><path fill="#402B30" d="M34 11v3h-4v-1h1v-1h1v1h1v-2z"/><path fill="#825A58" d="M27 15h4v1h-3v1h-1z"/><path fill="#0D0B0F" d="M30 16h1v1h-1z"/><path fill="#815B59" d="M32 17v1h-1v-1z"/><path fill="#57616C" d="M9 44h1v1H9z"/><path fill="#DBB4A9" d="M17 4h-1V3h1z"/><path fill="#DCB4A8" d="M18 4h1v1h-2V4z"/><path fill="#5A3D41" d="M27 23v1h1v2h-1v-1h-1v-3h1z"/><path fill="#0D0B0F" d="M26 20v-1h-1v-1h2v2z"/><path fill="#815B59" d="M26 25h1v2h-1z"/><path fill="#211E23" d="M25 18v2h-1v-2z"/><path fill="#402B30" d="M26 20h1v1h-1zm-2 0h1v1h-1z"/><path fill="#815B59" d="M26 21h1v1h-1z"/><path fill="#A1A5A6" d="M24 22h-1v-1h1z"/><path fill="#B4857B" d="M21 38v-2h-1v-3h1v2h2v-1h1v2h-2v2z"/><path fill="#5A3D40" d="M21 33h-1v-2h1v1z"/><path fill="#EED8CC" d="M23 21v3h-1v-1h-1v-1h1v-1z"/><path fill="#825A58" d="M19 21h-1v-1h2v1zm3 0v1h-2v-1h1z"/><path fill="#EED8CB" d="M20 24v-1h1v1z"/><path fill="#5A3D40" d="M20 21v1h-1v-1z"/><path fill="#A1A5A6" d="M18 22h-1v-1h1z"/><path fill="#B3857C" d="M22 24v1h-1v-1z"/><path fill="#DCB4A8" d="M21 33v-1h1v-1h1v2h1v1h-1v1h-2z"/><path fill="#825A58" d="M22 31v1h-1v-1zm1-1h1v1h-1z"/><path fill="#EED8CC" d="M17 21v2h-2v-2z"/><path fill="#B4857B" d="M24 31v-2h1v2z"/><path fill="#5A3D40" d="M25 28h1v1h-1z"/><path fill="#5A3D41" d="M26 27h2v1h-2z"/><path fill="#DBB4A9" d="M15 19h-1v-1h1z"/><path fill="#0D0B0F" d="M17 20h-1v-1h1z"/><path fill="#5A3D41" d="M17 19h-1v-1h1zm1 2h-1v-1h1z"/><path fill="#DBB4A9" d="M18 17h1v1h-1z"/><path fill="#402B30" d="M17 19v-1h1v1z"/><path fill="#0C0B10" d="M31 18h2v1h-2z"/><path fill="#444A54" d="M32 19h1v1h-1z"/><path fill="#402B30" d="M32 20h1v2h-1v1h-2v-3h1v1h1z"/><path fill="#57616C" d="M31 23h2v1h-2z"/><path fill="#211E22" d="M30 24h-1v-1h-1v-1h1v1h1z"/><path fill="#0D0B0F" d="M28 22v1h-1v-2h1z"/><path fill="#5A3D41" d="M31 24h1v1h-1z"/><path fill="#0C0B10" d="M30 24v-1h1v1z"/><path fill="#5A3D41" d="M29 29h-1v-1h1z"/><path fill="#825A58" d="M29 28h-1v-1h1z"/><path fill="#593D41" d="M29 27h-1v-1h1z"/><path fill="#211E22" d="M29 27v-1h1v1z"/><path fill="#211E23" d="M28 28v2h-1v-2z"/><path fill="#825A58" d="M25 29h1v3h-2v-1h1z"/><path fill="#B3857C" d="M24 34v-1h3v1h-2z"/><path fill="#5A3D40" d="M27 33h-2v-1h2z"/><path fill="#815B59" d="M27 33v-1h1v1z"/><path fill="#B3867C" d="M26 31v-1h1v1z"/><path fill="#5A3D40" d="M25 34h1v1h1v1h-2z"/><path fill="#825A58" d="M26 36h1v1h-1z"/><path fill="#3F2B31" d="M29 40v1h-1v-1z"/><path fill="#211E23" d="M31 39h-1v-1h1z"/><path fill="#B4857B" d="M26 37v1h-3v-1h2v-1h1z"/><path fill="#0D0B0F" d="M28 40v1h-1v-1z"/><path fill="#DCB4A8" d="M23 37v1h-1v-2h1zm3-22v-3h1v3z"/><path fill="#0D0B0F" d="M25 18h-2v-1h2z"/><path fill="#402B30" d="M27 18h-1v-1h1z"/><path fill="#5A3D41" d="M26 17v1h-1v-1z"/><path fill="#815B59" d="M23 17v1h-1v-1zm-3 0h1v1h-1z"/><path fill="#B3867C" d="M20 17v1h-1v-1z"/><path fill="#5A3D40" d="M21 18v-1h1v1z"/><path fill="#402B30" d="M28 17v-1h1v1z"/><path fill="#211E22" d="M29 17v-1h1v1z"/><path fill="#0C0B10" d="M27 18v-1h1v1z"/><path fill="#593D41" d="M31 17v1h-1v-1z"/><path fill="#57616C" d="M28 26v1h-1v-1z"/><path fill="#201E23" d="M30 18v4h-1v-1h-2v-3h1v-1h1v1z"/><path fill="#A0A5A8" d="M23 18h1v1h-1z"/><path fill="#DBB4A9" d="M23 19h1v1h-1z"/><path fill="#EED8CC" d="M23 20h1v1h-1z"/><path fill="#825A58" d="M25 34v2h-1v-2z"/><path fill="#EED8CB" d="M23 37v-1h1v1z"/><path fill="#402B30" d="M22 24h-1v-1h1z"/><path fill="#B3857C" d="M23 20v1h-1v-1z"/><path fill="#211E22" d="M19 18h1v1h-1v1h-1v-2z"/><path fill="#5A3D41" d="M21 21h-1v-1h1z"/><path fill="#402B30" d="M19 20v-1h1v1zm2 1v-1h1v1z"/><path fill="#EED8CB" d="M24 33h-1v-1h1z"/><path fill="#B3857C" d="M24 32h-1v-1h1z"/><path fill="#402B30" d="M27 30h-1v-2h1z"/><path fill="#A0A5A8" d="M18 19v1h-1v-1z"/><path fill="#201E23" d="M31 20v-1h1v1z"/><path fill="#444953" d="M30 19v-1h1v1z"/><path fill="#5A3D41" d="M31 20h1v1h-1z"/><path fill="#593D41" d="M29 22h1v1h-1z"/><path fill="#211E22" d="M30 19h1v1h-1z"/><path fill="#3F2B31" d="M28 21h1v1h-1z"/><path fill="#DCB4A8" d="M24 33v-1h1v1zm0 4v-1h1v1z"/><path fill="#5A3D41" d="M23 18v1h-1v-1z"/><path fill="#0D0B0F" d="M20 19v-1h1v1z"/><path fill="#402B30" d="M21 19v-1h1v1zm9-1h-1v-1h1z"/><path fill="#825A58" d="M22 19h1v1h-1v-1z"/><path fill="#815B59" d="M20 19h1v1h-1z"/><path fill="#211E22" d="M21 20v-1h1v1z"/></svg>
